<svg width="20" height="19" viewBox="0 0 20 19" fill="none" xmlns="http://www.w3.org/2000/svg">
<path d="M12.3735 9.01112L4.70508 7.63281V17.8171C4.70508 18.2822 5.07526 18.6592 5.53191 18.6592H18.7639C19.2206 18.6592 19.5908 18.2822 19.5908 17.8171V14.0649L12.3735 9.01112Z" fill="#185C37"/>
<path d="M12.3735 0.46582H5.53191C5.07526 0.46582 4.70508 0.83958 4.70508 1.30064V5.02021L12.3735 9.57461L16.4332 10.9409L19.5908 9.57461V5.02021L12.3735 0.46582Z" fill="#21A366"/>
<path d="M4.70508 5.1543H12.4236V9.56487H4.70508V5.1543Z" fill="#107C41"/>
<path opacity="0.1" d="M10.2152 4.04785H4.70508V15.6256H10.2152C10.673 15.6241 11.0438 15.2449 11.0453 14.7767V4.89673C11.0438 4.42854 10.673 4.04937 10.2152 4.04785Z" fill="black"/>
<path opacity="0.2" d="M9.67772 4.60059H4.70508V15.9027H9.67772C10.1279 15.9012 10.4925 15.5311 10.494 15.074V5.42925C10.4925 4.97221 10.1279 4.60207 9.67772 4.60059Z" fill="black"/>
<path opacity="0.2" d="M9.67772 4.60059H4.70508V15.0757H9.67772C10.1279 15.0742 10.4925 14.7013 10.494 14.2409V5.4354C10.4925 4.97497 10.1279 4.60208 9.67772 4.60059Z" fill="black"/>
<path opacity="0.2" d="M9.1426 4.60059H4.70508V15.0757H9.1426C9.58385 15.0742 9.9412 14.7013 9.94263 14.2409V5.4354C9.9412 4.97497 9.58385 4.60208 9.1426 4.60059Z" fill="black"/>
<path d="M0.846362 4.60059H9.11649C9.57313 4.60059 9.94332 4.97077 9.94332 5.42742V13.6975C9.94332 14.1542 9.57313 14.5244 9.11649 14.5244H0.846362C0.389715 14.5244 0.0195312 14.1542 0.0195312 13.6975V5.42742C0.0195312 4.97077 0.389715 4.60059 0.846362 4.60059Z" fill="url(#paint0_linear_11847_32373)"/>
<path d="M2.5 12.3199L4.2972 9.55562L2.65055 6.80664H3.97514L4.87374 8.56465C4.95671 8.73166 5.01357 8.85564 5.04433 8.93753H5.05598C5.11502 8.80429 5.17716 8.67491 5.24242 8.54938L6.203 6.80757H7.419L5.73039 9.54035L7.46189 12.3198H6.16805L5.13009 10.3902C5.0812 10.3081 5.03971 10.2219 5.00612 10.1325H4.99074C4.96033 10.2201 4.91999 10.3039 4.87049 10.3823L3.80177 12.3199H2.5Z" fill="white"/>
<path d="M18.7699 0.46582H12.4238V5.15205H19.591V1.3248C19.591 0.850399 19.2234 0.46582 18.7699 0.46582Z" fill="#33C481"/>
<path d="M12.4238 9.5625H19.591V14.2487H12.4238V9.5625Z" fill="#107C41"/>
<defs>
<linearGradient id="paint0_linear_11847_32373" x1="1.74349" y1="3.95452" x2="8.21936" y2="15.1705" gradientUnits="userSpaceOnUse">
<stop stop-color="#18884F"/>
<stop offset="0.5" stop-color="#117E43"/>
<stop offset="1" stop-color="#0B6631"/>
</linearGradient>
</defs>
</svg>
